<?xml version="1.0" standalone="no"?><svg xmlns="http://www.w3.org/2000/svg" viewBox="0 0 1440 320"><path fill="#a2d9ff" fill-opacity="1" d="M0,320L6.2,288C12.3,256,25,192,37,186.7C49.2,181,62,235,74,224C86.2,213,98,139,111,112C123.1,85,135,107,148,101.3C160,96,172,64,185,85.3C196.9,107,209,181,222,218.7C233.8,256,246,256,258,218.7C270.8,181,283,107,295,74.7C307.7,43,320,53,332,48C344.6,43,357,21,369,21.3C381.5,21,394,43,406,96C418.5,149,431,235,443,224C455.4,213,468,107,480,74.7C492.3,43,505,85,517,117.3C529.2,149,542,171,554,160C566.2,149,578,107,591,80C603.1,53,615,43,628,32C640,21,652,11,665,48C676.9,85,689,171,702,202.7C713.8,235,726,213,738,192C750.8,171,763,149,775,160C787.7,171,800,213,812,197.3C824.6,181,837,107,849,101.3C861.5,96,874,160,886,186.7C898.5,213,911,203,923,197.3C935.4,192,948,192,960,170.7C972.3,149,985,107,997,96C1009.2,85,1022,107,1034,144C1046.2,181,1058,235,1071,234.7C1083.1,235,1095,181,1108,160C1120,139,1132,149,1145,138.7C1156.9,128,1169,96,1182,85.3C1193.8,75,1206,85,1218,112C1230.8,139,1243,181,1255,186.7C1267.7,192,1280,160,1292,165.3C1304.6,171,1317,213,1329,208C1341.5,203,1354,149,1366,128C1378.5,107,1391,117,1403,154.7C1415.4,192,1428,256,1434,288L1440,320L1440,320L1433.8,320C1427.7,320,1415,320,1403,320C1390.8,320,1378,320,1366,320C1353.8,320,1342,320,1329,320C1316.9,320,1305,320,1292,320C1280,320,1268,320,1255,320C1243.1,320,1231,320,1218,320C1206.2,320,1194,320,1182,320C1169.2,320,1157,320,1145,320C1132.3,320,1120,320,1108,320C1095.4,320,1083,320,1071,320C1058.5,320,1046,320,1034,320C1021.5,320,1009,320,997,320C984.6,320,972,320,960,320C947.7,320,935,320,923,320C910.8,320,898,320,886,320C873.8,320,862,320,849,320C836.9,320,825,320,812,320C800,320,788,320,775,320C763.1,320,751,320,738,320C726.2,320,714,320,702,320C689.2,320,677,320,665,320C652.3,320,640,320,628,320C615.4,320,603,320,591,320C578.5,320,566,320,554,320C541.5,320,529,320,517,320C504.6,320,492,320,480,320C467.7,320,455,320,443,320C430.8,320,418,320,406,320C393.8,320,382,320,369,320C356.9,320,345,320,332,320C320,320,308,320,295,320C283.1,320,271,320,258,320C246.2,320,234,320,222,320C209.2,320,197,320,185,320C172.3,320,160,320,148,320C135.4,320,123,320,111,320C98.5,320,86,320,74,320C61.5,320,49,320,37,320C24.6,320,12,320,6,320L0,320Z"></path></svg>